<mxfile host="app.diagrams.net" modified="2024-01-20T07:38:37.633Z" agent="Mozilla/5.0 (Macintosh; Intel Mac OS X 10_15_7) AppleWebKit/537.36 (KHTML, like Gecko) Chrome/120.0.0.0 Safari/537.36" etag="-KtzyKB8CeXzE9C7DaWs" version="22.1.21" type="device">
  <diagram name="Page-1" id="_8k8ixN_uX5WebRWYYrb">
    <mxGraphModel dx="1026" dy="569" grid="1" gridSize="10" guides="1" tooltips="1" connect="1" arrows="1" fold="1" page="1" pageScale="1" pageWidth="827" pageHeight="1169" math="0" shadow="0">
      <root>
        <mxCell id="0" />
        <mxCell id="1" parent="0" />
        <mxCell id="QilN5nwg-XRG4o903NYg-12" style="edgeStyle=orthogonalEdgeStyle;rounded=0;orthogonalLoop=1;jettySize=auto;html=1;exitX=0;exitY=0.25;exitDx=0;exitDy=0;entryX=1;entryY=0.25;entryDx=0;entryDy=0;" edge="1" parent="1" source="QilN5nwg-XRG4o903NYg-1" target="QilN5nwg-XRG4o903NYg-2">
          <mxGeometry relative="1" as="geometry" />
        </mxCell>
        <mxCell id="QilN5nwg-XRG4o903NYg-19" value="speed" style="edgeLabel;html=1;align=center;verticalAlign=middle;resizable=0;points=[];" vertex="1" connectable="0" parent="QilN5nwg-XRG4o903NYg-12">
          <mxGeometry x="-0.0571" y="4" relative="1" as="geometry">
            <mxPoint as="offset" />
          </mxGeometry>
        </mxCell>
        <mxCell id="QilN5nwg-XRG4o903NYg-1" value="Computer&lt;br&gt;(running your program)" style="rounded=1;whiteSpace=wrap;html=1;" vertex="1" parent="1">
          <mxGeometry x="330" y="120" width="120" height="110" as="geometry" />
        </mxCell>
        <mxCell id="QilN5nwg-XRG4o903NYg-13" style="edgeStyle=orthogonalEdgeStyle;rounded=0;orthogonalLoop=1;jettySize=auto;html=1;exitX=1;exitY=0.75;exitDx=0;exitDy=0;entryX=0;entryY=0.75;entryDx=0;entryDy=0;" edge="1" parent="1" source="QilN5nwg-XRG4o903NYg-2" target="QilN5nwg-XRG4o903NYg-1">
          <mxGeometry relative="1" as="geometry" />
        </mxCell>
        <mxCell id="QilN5nwg-XRG4o903NYg-18" value="position" style="edgeLabel;html=1;align=center;verticalAlign=middle;resizable=0;points=[];" vertex="1" connectable="0" parent="QilN5nwg-XRG4o903NYg-13">
          <mxGeometry x="-0.0857" y="-3" relative="1" as="geometry">
            <mxPoint y="1" as="offset" />
          </mxGeometry>
        </mxCell>
        <mxCell id="QilN5nwg-XRG4o903NYg-2" value="DC Motor&lt;br&gt;controller" style="rounded=1;whiteSpace=wrap;html=1;" vertex="1" parent="1">
          <mxGeometry x="140" y="120" width="120" height="110" as="geometry" />
        </mxCell>
        <mxCell id="QilN5nwg-XRG4o903NYg-3" value="Light Gate Configuration" style="text;html=1;strokeColor=none;fillColor=none;align=center;verticalAlign=middle;whiteSpace=wrap;rounded=0;" vertex="1" parent="1">
          <mxGeometry x="100" y="70" width="160" height="30" as="geometry" />
        </mxCell>
        <mxCell id="QilN5nwg-XRG4o903NYg-5" value="" style="edgeStyle=orthogonalEdgeStyle;rounded=0;orthogonalLoop=1;jettySize=auto;html=1;" edge="1" parent="1" source="QilN5nwg-XRG4o903NYg-4" target="QilN5nwg-XRG4o903NYg-1">
          <mxGeometry relative="1" as="geometry" />
        </mxCell>
        <mxCell id="QilN5nwg-XRG4o903NYg-4" value="Digital Input&lt;br&gt;Limit Switch" style="rounded=1;whiteSpace=wrap;html=1;" vertex="1" parent="1">
          <mxGeometry x="550" y="145" width="120" height="60" as="geometry" />
        </mxCell>
        <mxCell id="QilN5nwg-XRG4o903NYg-14" style="edgeStyle=orthogonalEdgeStyle;rounded=0;orthogonalLoop=1;jettySize=auto;html=1;exitX=0;exitY=0.25;exitDx=0;exitDy=0;entryX=1;entryY=0.5;entryDx=0;entryDy=0;" edge="1" parent="1" source="QilN5nwg-XRG4o903NYg-6" target="QilN5nwg-XRG4o903NYg-7">
          <mxGeometry relative="1" as="geometry" />
        </mxCell>
        <mxCell id="QilN5nwg-XRG4o903NYg-17" value="speed" style="edgeLabel;html=1;align=center;verticalAlign=middle;resizable=0;points=[];" vertex="1" connectable="0" parent="QilN5nwg-XRG4o903NYg-14">
          <mxGeometry x="-0.0667" y="2" relative="1" as="geometry">
            <mxPoint as="offset" />
          </mxGeometry>
        </mxCell>
        <mxCell id="QilN5nwg-XRG4o903NYg-6" value="Computer&lt;br&gt;(running your program)" style="rounded=1;whiteSpace=wrap;html=1;" vertex="1" parent="1">
          <mxGeometry x="330" y="330" width="120" height="140" as="geometry" />
        </mxCell>
        <mxCell id="QilN5nwg-XRG4o903NYg-7" value="AC Motor&lt;br&gt;controller" style="rounded=1;whiteSpace=wrap;html=1;" vertex="1" parent="1">
          <mxGeometry x="140" y="330" width="120" height="60" as="geometry" />
        </mxCell>
        <mxCell id="QilN5nwg-XRG4o903NYg-8" value="Heavy Gate Configuration" style="text;html=1;strokeColor=none;fillColor=none;align=center;verticalAlign=middle;whiteSpace=wrap;rounded=0;" vertex="1" parent="1">
          <mxGeometry x="100" y="280" width="160" height="30" as="geometry" />
        </mxCell>
        <mxCell id="QilN5nwg-XRG4o903NYg-9" value="" style="edgeStyle=orthogonalEdgeStyle;rounded=0;orthogonalLoop=1;jettySize=auto;html=1;" edge="1" parent="1" source="QilN5nwg-XRG4o903NYg-10" target="QilN5nwg-XRG4o903NYg-6">
          <mxGeometry relative="1" as="geometry" />
        </mxCell>
        <mxCell id="QilN5nwg-XRG4o903NYg-10" value="Digital Input&lt;br&gt;Limit Switch" style="rounded=1;whiteSpace=wrap;html=1;" vertex="1" parent="1">
          <mxGeometry x="550" y="370" width="120" height="60" as="geometry" />
        </mxCell>
        <mxCell id="QilN5nwg-XRG4o903NYg-15" value="" style="edgeStyle=orthogonalEdgeStyle;rounded=0;orthogonalLoop=1;jettySize=auto;html=1;entryX=-0.008;entryY=0.8;entryDx=0;entryDy=0;entryPerimeter=0;" edge="1" parent="1" source="QilN5nwg-XRG4o903NYg-11" target="QilN5nwg-XRG4o903NYg-6">
          <mxGeometry relative="1" as="geometry" />
        </mxCell>
        <mxCell id="QilN5nwg-XRG4o903NYg-16" value="position" style="edgeLabel;html=1;align=center;verticalAlign=middle;resizable=0;points=[];" vertex="1" connectable="0" parent="QilN5nwg-XRG4o903NYg-15">
          <mxGeometry x="0.0417" y="-5" relative="1" as="geometry">
            <mxPoint x="-4" y="-2" as="offset" />
          </mxGeometry>
        </mxCell>
        <mxCell id="QilN5nwg-XRG4o903NYg-11" value="External&lt;br&gt;Encoder" style="rounded=1;whiteSpace=wrap;html=1;" vertex="1" parent="1">
          <mxGeometry x="140" y="410" width="120" height="60" as="geometry" />
        </mxCell>
      </root>
    </mxGraphModel>
  </diagram>
</mxfile>
